<?xml version="1.0" encoding="utf-8"?>
<!-- Generator: Adobe Illustrator 16.0.0, SVG Export Plug-In . SVG Version: 6.00 Build 0)  -->
<!DOCTYPE svg PUBLIC "-//W3C//DTD SVG 1.1//EN" "http://www.w3.org/Graphics/SVG/1.1/DTD/svg11.dtd">
<svg version="1.1"
	 id="svg3007" xmlns:dc="http://purl.org/dc/elements/1.1/" xmlns:cc="http://creativecommons.org/ns#" xmlns:rdf="http://www.w3.org/1999/02/22-rdf-syntax-ns#" xmlns:svg="http://www.w3.org/2000/svg"
	 xmlns="http://www.w3.org/2000/svg" xmlns:xlink="http://www.w3.org/1999/xlink" x="0px" y="0px" width="450px" height="450px"
	 viewBox="-353 -35 450 450" enable-background="new -353 -35 450 450" xml:space="preserve">
<g id="Calque_2" transform="translate(-110.46001,-48.550032)">
</g>
<g id="Calque_1" transform="translate(-110.46001,-48.550032)">
	<circle id="circle3011" fill="#FFFFFF" cx="-17.54" cy="238.55" r="225"/>
	<g id="g3013">
		<path id="path3015" fill="#97BF0D" d="M-15.047,65.014c102.6,0,185.809,82.39,185.809,183.967
			c0,65.826-34.893,123.547-87.34,156.07c27.246-25.732,44.226-62.019,44.226-102.233c0-78.013-63.86-141.3-142.65-141.3
			c-78.792,0-142.651,63.245-142.651,141.3c0,40.215,16.977,76.501,44.223,102.233c-52.445-32.523-87.341-90.244-87.341-156.07
			C-200.854,147.404-117.645,65.014-15.047,65.014"/>
		<path id="path3017" fill="#97BF0D" d="M35.722,188.968c44.345,19.35,75.314,63.245,75.314,114.302
			c0,68.93-56.454,124.853-126.083,124.853c-69.625,0-126.08-55.923-126.08-124.853c0-51.057,30.968-94.952,75.314-114.302
			c-17.632,14.482-28.882,36.326-28.882,60.752c0,43.566,35.631,78.83,79.607,78.83c43.978,0,79.612-35.304,79.612-78.83
			C64.565,225.294,53.356,203.45,35.722,188.968"/>
		<path id="path3019" fill="none" d="M-65.812,188.968v3.273c-17.632,14.44-28.882,36.327-28.882,60.747v-3.269
			C-94.654,225.294-83.444,203.45-65.812,188.968"/>
		<path id="path3021" fill="#008A2E" d="M-15.047,184.142c36.658,0,66.357,29.413,66.357,65.698
			c0,36.287-29.699,65.702-66.357,65.702c-36.653,0-66.352-29.415-66.352-65.702C-81.398,213.555-51.7,184.142-15.047,184.142"/>
	</g>
</g>
</svg>
