<svg version="1.1" xmlns="http://www.w3.org/2000/svg" xmlns:xlink="http://www.w3.org/1999/xlink" xmlns:a="http://ns.adobe.com/AdobeSVGViewerExtensions/3.0/" x="0px" y="0px" width="318px" height="312px" viewBox="0 0 318 312" overflow="visible" enable-background="new 0 0 318 312" xml:space="preserve">
<defs>
</defs>
<g>
	<path fill="#B9BABC" d="M250,273c0,5.5-4.5,10-10,10H10c-5.5,0-10-4.5-10-10V110c0-5.5,4.5-10,10-10h230c5.5,0,10,4.5,10,10V273z"/>
</g>
<g>
	<path fill="#B9BABC" d="M175,309c0,1.65-1.35,3-3,3H78c-1.65,0-3-1.35-3-3v-4c0-1.65,1.35-3,3-3h94c1.65,0,3,1.35,3,3V309z"/>
</g>
<g>
	<path fill="#B9BABC" d="M155,302c0,1.65-1.35,3-3,3H98c-1.65,0-3-1.35-3-3v-22c0-1.65,1.35-3,3-3h54c1.65,0,3,1.35,3,3V302z"/>
</g>
​​​​​<rect x="10" y="110" fill="#FFFFFF" width="231" height="151"/>​​​​​
<circle fill="#FFFFFF" cx="124" cy="271.805" r="5"/>
<circle fill="none" stroke="#5D5F62" stroke-width="2" stroke-miterlimit="10" cx="26.681" cy="126.682" r="8.681"/>
<line fill="none" stroke="#5D5F62" stroke-width="2" stroke-miterlimit="10" x1="10" y1="144" x2="241" y2="144"/>
<g>
	<path fill="none" stroke="#5D5F62" stroke-width="2" stroke-miterlimit="10" d="M230.509,202c0,2.75-2.25,5-5,5H25   c-2.75,0-5-2.25-5-5v-40c0-2.75,2.25-5,5-5h200.509c2.75,0,5,2.25,5,5V202z"/>
</g>
<line fill="none" stroke="#5D5F62" stroke-width="2" stroke-miterlimit="10" x1="20" y1="219" x2="118" y2="219"/>
<line fill="none" stroke="#5D5F62" stroke-width="2" stroke-miterlimit="10" x1="133.509" y1="219" x2="230.509" y2="219"/>
<line fill="none" stroke="#5D5F62" stroke-width="2" stroke-miterlimit="10" x1="20" y1="228" x2="118" y2="228"/>
<line fill="none" stroke="#5D5F62" stroke-width="2" stroke-miterlimit="10" x1="133.509" y1="228" x2="230.509" y2="228"/>
<line fill="none" stroke="#5D5F62" stroke-width="2" stroke-miterlimit="10" x1="20" y1="237" x2="118" y2="237"/>
<line fill="none" stroke="#5D5F62" stroke-width="2" stroke-miterlimit="10" x1="133.509" y1="237" x2="230.509" y2="237"/>
<line fill="none" stroke="#5D5F62" stroke-width="2" stroke-miterlimit="10" x1="20" y1="246" x2="118" y2="246"/>
<line fill="none" stroke="#5D5F62" stroke-width="2" stroke-miterlimit="10" x1="133.509" y1="246" x2="230.509" y2="246"/>
<line fill="none" stroke="#5D5F62" stroke-width="2" stroke-miterlimit="10" x1="201.509" y1="120" x2="230.509" y2="120"/>
<g>
	<path fill="#FFFFFF" d="M146.946,299.807c0,5.5,4.5,10,10,10h89.123c5.5,0,10-4.5,10-10V166.533c0-5.5-4.5-10-10-10h-89.123   c-5.5,0-10,4.5-10,10V299.807z"/>
</g>
<path fill="#747678" d="M161.639,312h81.34c9.553,0,17.298-7.737,17.298-17.292V170.292c0-9.555-7.745-17.292-17.298-17.292h-81.34  c-9.555,0-17.296,7.737-17.296,17.292v124.416C144.342,304.263,152.084,312,161.639,312z M202.309,306.993  c-1.722,0-3.113-1.396-3.113-3.114s1.392-3.105,3.113-3.105c1.715,0,3.11,1.388,3.11,3.105S204.023,306.993,202.309,306.993z   M151.838,167.31c0-3.098,2.512-5.605,5.602-5.605h89.737c3.094,0,5.598,2.508,5.598,5.605v124.186c0,3.097-2.504,5.597-5.598,5.597  H157.44c-3.09,0-5.602-2.5-5.602-5.597V167.31z"/>
<circle fill="none" stroke="#5D5F62" stroke-width="2" stroke-miterlimit="10" cx="163.581" cy="174.5" r="5"/>
<line fill="none" stroke="#5D5F62" stroke-width="2" stroke-miterlimit="10" x1="151.581" y1="188.5" x2="252.775" y2="188.5"/>
<line fill="none" stroke="#5D5F62" stroke-width="2" stroke-miterlimit="10" x1="158.581" y1="248" x2="246.021" y2="248"/>
<line fill="none" stroke="#5D5F62" stroke-width="2" stroke-miterlimit="10" x1="158.581" y1="256" x2="246.021" y2="256"/>
<line fill="none" stroke="#5D5F62" stroke-width="2" stroke-miterlimit="10" x1="158.581" y1="264" x2="246.021" y2="264"/>
<line fill="none" stroke="#5D5F62" stroke-width="2" stroke-miterlimit="10" x1="158.581" y1="272" x2="246.021" y2="272"/>
<line fill="none" stroke="#5D5F62" stroke-width="2" stroke-miterlimit="10" x1="158.581" y1="280" x2="246.021" y2="280"/>
<line fill="none" stroke="#5D5F62" stroke-width="2" stroke-miterlimit="10" x1="158.581" y1="288" x2="246.021" y2="288"/>
<g>
	<path fill="none" stroke="#5D5F62" stroke-width="2" stroke-miterlimit="10" d="M246.021,232.5c0,2.75-2.25,5-5,5h-77.44   c-2.75,0-5-2.25-5-5v-29c0-2.75,2.25-5,5-5h77.44c2.75,0,5,2.25,5,5V232.5z"/>
</g>
<path fill="#B9BABC" d="M215.557,312h72.438c8.507,0,15.404-6.891,15.404-15.399v-110.8c0-8.509-6.897-15.399-15.404-15.399h-72.438  c-8.51,0-15.404,6.891-15.404,15.399v110.8C200.152,305.109,207.047,312,215.557,312z"/>
<rect x="205.152" y="186.801" fill="#FFFFFF" width="92.246" height="109.8"/>
<rect x="234" y="177.5" fill="#FFFFFF" width="33" height="3.5"/>
<circle fill="none" stroke="#5D5F62" stroke-width="2" stroke-miterlimit="10" cx="215.581" cy="197.5" r="5"/>
<line fill="none" stroke="#5D5F62" stroke-width="2" stroke-miterlimit="10" x1="205.152" y1="209.5" x2="297.398" y2="209.5"/>
<line fill="none" stroke="#5D5F62" stroke-width="2" stroke-miterlimit="10" x1="210.581" y1="271" x2="289.021" y2="271"/>
<line fill="none" stroke="#5D5F62" stroke-width="2" stroke-miterlimit="10" x1="210.581" y1="279" x2="289.021" y2="279"/>
<line fill="none" stroke="#5D5F62" stroke-width="2" stroke-miterlimit="10" x1="210.581" y1="287" x2="289.021" y2="287"/>
<g>
	<path fill="none" stroke="#5D5F62" stroke-width="2" stroke-miterlimit="10" d="M291.398,251.5c0,2.75-2.25,5-5,5h-70.817   c-2.75,0-5-2.25-5-5v-29c0-2.75,2.25-5,5-5h70.817c2.75,0,5,2.25,5,5V251.5z"/>
</g>
<radialGradient id="SVGID_1_" cx="282.4395" cy="257.3984" r="42.9684" gradientUnits="userSpaceOnUse">
	<stop offset="0" style="stop-color:#FFFFFF"/>
	<stop offset="1" style="stop-color:#F7F7F7"/>
</radialGradient>
<polygon fill="url(#SVGID_1_)" points="257.565,207.906 277.092,205.023 309.348,206.465 313.254,219.453 312.066,298.396   287.617,309.772 277.773,309.772 255.021,299.246 251.625,284.474 254.004,213.509 "/>
<path fill="#747678" d="M266.881,312h33.194c9.702,0,17.569-7.862,17.569-17.569v-76.964c0-9.709-7.867-17.57-17.569-17.57h-33.194  c-9.709,0-17.574,7.861-17.574,17.57v76.964C249.307,304.138,257.172,312,266.881,312z M283.479,306.911  c-1.753,0-3.167-1.418-3.167-3.162c0-1.746,1.414-3.156,3.167-3.156c1.737,0,3.156,1.41,3.156,3.156  C286.636,305.493,285.217,306.911,283.479,306.911z M256.924,214.436c0-3.141,2.55-5.688,5.691-5.688h41.727  c3.144,0,5.688,2.547,5.688,5.688v76.73c0,3.147-2.544,5.688-5.688,5.688h-41.727c-3.142,0-5.691-2.54-5.691-5.688V214.436z"/>
<circle fill="none" stroke="#5D5F62" stroke-width="2" stroke-miterlimit="10" cx="265.933" cy="218.422" r="3.729"/>
<line fill="none" stroke="#5D5F62" stroke-width="2" stroke-miterlimit="10" x1="257.152" y1="227.374" x2="310.029" y2="227.374"/>
<line fill="none" stroke="#5D5F62" stroke-width="2" stroke-miterlimit="10" x1="261.203" y1="273.255" x2="303.722" y2="273.255"/>
<line fill="none" stroke="#5D5F62" stroke-width="2" stroke-miterlimit="10" x1="261.203" y1="279.223" x2="303.722" y2="279.223"/>
<line fill="none" stroke="#5D5F62" stroke-width="2" stroke-miterlimit="10" x1="261.203" y1="285.191" x2="303.722" y2="285.191"/>
<g>
	<path fill="none" stroke="#5D5F62" stroke-width="2" stroke-miterlimit="10" d="M305.495,257.438c0,2.75-2.25,5-5,5h-34.292   c-2.75,0-5-2.25-5-5v-19.096c0-2.75,2.25-5,5-5h34.292c2.75,0,5,2.25,5,5V257.438z"/>
</g>

</svg>